<svg xmlns="http://www.w3.org/2000/svg">
  <symbol fill="#FFF" viewBox="0 0 24 24" id="location">
    <path d="M0 0h24v24H0z" fill="none"></path>
    <path d="M18 8c0-3.31-2.69-6-6-6S6 4.69 6 8c0 4.5 6 11 6 11s6-6.5 6-11zm-8 0c0-1.1.9-2 2-2s2 .9 2 2a2 2 0 11-4 0zM5 20v2h14v-2H5z"></path>
  </symbol>
   <symbol viewBox="0 0 24 24" id="github">
    <path d="M12 .3a12 12 0 00-3.8 23.38c.6.12.83-.26.83-.57L9 21.07c-3.34.72-4.04-1.61-4.04-1.61-.55-1.39-1.34-1.76-1.34-1.76-1.08-.74.09-.73.09-.73 1.2.09 1.83 1.24 1.83 1.24 1.07 1.83 2.81 1.3 3.5 1 .1-.78.42-1.31.76-1.61-2.67-.3-5.47-1.33-5.47-5.93 0-1.31.47-2.38 1.24-3.22-.14-.3-.54-1.52.1-3.18 0 0 1-.32 3.3 1.23a11.5 11.5 0 016 0c2.28-1.55 3.29-1.23 3.29-1.23.64 1.66.24 2.88.12 3.18a4.65 4.65 0 011.23 3.22c0 4.61-2.8 5.63-5.48 5.92.42.36.81 1.1.81 2.22l-.01 3.29c0 .31.2.69.82.57A12 12 0 0012 .3"/>
   </symbol>
  <symbol viewBox="0 0 76.62 65.33" id="linkedin">
    <path d="M55.2 55.2h-9.6V40.17c0-3.58-.06-8.2-4.99-8.2-5 0-5.76 3.9-5.76 7.94v15.3h-9.6V24.28h9.21v4.22h.13a10.1 10.1 0 019.1-5c9.72 0 11.52 6.4 11.52 14.73zM14.41 20.06a5.57 5.57 0 115.57-5.57 5.57 5.57 0 01-5.57 5.57m4.8 35.14h-9.6V24.3h9.6zM60 0H4.78A4.73 4.73 0 000 4.67v55.44a4.73 4.73 0 004.78 4.68h55.21a4.74 4.74 0 004.8-4.68V4.67A4.74 4.74 0 0059.99 0"/>
  </symbol>
    <symbol fill="#FFF" viewBox="0 0 24 24" id="email">
    <path d="M0 0h24v24H0z" fill="none"></path>
    <path d="M20 4H4c-1.1 0-1.99.9-1.99 2L2 18c0 1.1.9 2 2 2h16c1.1 0 2-.9 2-2V6c0-1.1-.9-2-2-2zm0 4l-8 5-8-5V6l8 5 8-5v2z"></path>
  </symbol>
    <symbol fill="#FFF" viewBox="0 0 24 24" id="work">
    <path d="M0 0h24v24H0V0z" fill="none"></path>
    <path d="M20 6h-4V4c0-1.11-.89-2-2-2h-4c-1.11 0-2 .89-2 2v2H4c-1.11 0-1.99.89-1.99 2L2 19c0 1.11.89 2 2 2h16c1.11 0 2-.89 2-2V8c0-1.11-.89-2-2-2zm-6 0h-4V4h4v2z"></path>
  </symbol>
    <symbol fill="#FFF" viewBox="0 0 24 24" id="education">
    <path d="M0 0h24v24H0V0z" fill="none"></path>
    <path d="M12 3L1 9l4 2.18v6L12 21l7-3.82v-6l2-1.09V17h2V9L12 3zm6.82 6L12 12.72 5.18 9 12 5.28 18.82 9zM17 15.99l-5 2.73-5-2.73v-3.72L12 15l5-2.73v3.72z"></path>
  </symbol>
</svg>